<svg xmlns="http://www.w3.org/2000/svg" viewBox="0 0 512 512">
  <defs>
    <linearGradient id="bg" x1="0%" y1="0%" x2="100%" y2="100%">
      <stop offset="0%" stop-color="#ffe0ef"/>
      <stop offset="100%" stop-color="#e8d5ff"/>
    </linearGradient>
    <linearGradient id="petal" x1="0%" y1="0%" x2="100%" y2="100%">
      <stop offset="0%" stop-color="#ffb3d9"/>
      <stop offset="100%" stop-color="#ff6b9d"/>
    </linearGradient>
    <linearGradient id="petalLight" x1="0%" y1="0%" x2="0%" y2="100%">
      <stop offset="0%" stop-color="#ffe8f3"/>
      <stop offset="100%" stop-color="#ff85a2"/>
    </linearGradient>
    <linearGradient id="center" x1="0%" y1="0%" x2="100%" y2="100%">
      <stop offset="0%" stop-color="#fff3bf"/>
      <stop offset="100%" stop-color="#ffc947"/>
    </linearGradient>
  </defs>
  <rect width="512" height="512" rx="96" fill="url(#bg)"/>
  <g transform="translate(256 268)">
    <ellipse cx="0" cy="-95" rx="55" ry="88" fill="url(#petalLight)" transform="rotate(0)"/>
    <ellipse cx="0" cy="-95" rx="55" ry="88" fill="url(#petalLight)" transform="rotate(72)"/>
    <ellipse cx="0" cy="-95" rx="55" ry="88" fill="url(#petal)" transform="rotate(144)"/>
    <ellipse cx="0" cy="-95" rx="55" ry="88" fill="url(#petalLight)" transform="rotate(216)"/>
    <ellipse cx="0" cy="-95" rx="55" ry="88" fill="url(#petal)" transform="rotate(288)"/>
    <ellipse cx="0" cy="-55" rx="36" ry="56" fill="#ffc9de" transform="rotate(36)"/>
    <ellipse cx="0" cy="-55" rx="36" ry="56" fill="#ffb3d9" transform="rotate(108)"/>
    <ellipse cx="0" cy="-55" rx="36" ry="56" fill="#ffc9de" transform="rotate(180)"/>
    <ellipse cx="0" cy="-55" rx="36" ry="56" fill="#ffb3d9" transform="rotate(252)"/>
    <ellipse cx="0" cy="-55" rx="36" ry="56" fill="#ffc9de" transform="rotate(324)"/>
    <circle cx="0" cy="0" r="58" fill="url(#center)"/>
    <circle cx="-20" cy="-15" r="10" fill="#f59f00" opacity="0.65"/>
    <circle cx="18" cy="-8" r="8" fill="#f59f00" opacity="0.55"/>
    <circle cx="5" cy="18" r="9" fill="#f59f00" opacity="0.6"/>
    <ellipse cx="-70" cy="55" rx="38" ry="22" fill="#6bcb77" transform="rotate(-30)"/>
    <ellipse cx="75" cy="60" rx="38" ry="22" fill="#51b364" transform="rotate(30)"/>
  </g>
</svg>
